<svg xmlns="http://www.w3.org/2000/svg" xmlns:xlink="http://www.w3.org/1999/xlink" width="500" zoomAndPan="magnify" viewBox="0 0 375 374.999991" height="500" preserveAspectRatio="xMidYMid meet" version="1.0"><defs><clipPath id="60d95f5fa4"><path d="M 68.800781 68.800781 L 306.550781 68.800781 L 306.550781 306.550781 L 68.800781 306.550781 Z M 68.800781 68.800781 " clip-rule="nonzero"/></clipPath></defs><path fill="#050505" d="M 303.417969 187.488281 C 303.417969 189.386719 303.375 191.28125 303.28125 193.175781 C 303.1875 195.070312 303.046875 196.964844 302.863281 198.851562 C 302.675781 200.738281 302.445312 202.621094 302.164062 204.496094 C 301.886719 206.375 301.5625 208.242188 301.191406 210.101562 C 300.824219 211.964844 300.40625 213.8125 299.945312 215.652344 C 299.484375 217.492188 298.980469 219.320312 298.429688 221.136719 C 297.878906 222.953125 297.28125 224.753906 296.644531 226.539062 C 296.003906 228.324219 295.324219 230.09375 294.597656 231.847656 C 293.871094 233.597656 293.101562 235.332031 292.289062 237.046875 C 291.480469 238.761719 290.628906 240.457031 289.734375 242.128906 C 288.839844 243.800781 287.902344 245.453125 286.929688 247.078125 C 285.953125 248.707031 284.9375 250.308594 283.886719 251.886719 C 282.832031 253.464844 281.738281 255.015625 280.609375 256.539062 C 279.480469 258.0625 278.3125 259.554688 277.109375 261.023438 C 275.90625 262.488281 274.667969 263.925781 273.394531 265.332031 C 272.117188 266.734375 270.8125 268.109375 269.46875 269.449219 C 268.128906 270.792969 266.753906 272.101562 265.351562 273.375 C 263.945312 274.648438 262.507812 275.886719 261.042969 277.089844 C 259.574219 278.292969 258.082031 279.460938 256.558594 280.589844 C 255.03125 281.71875 253.484375 282.8125 251.90625 283.867188 C 250.328125 284.921875 248.726562 285.933594 247.097656 286.910156 C 245.472656 287.886719 243.820312 288.820312 242.148438 289.714844 C 240.476562 290.609375 238.78125 291.460938 237.066406 292.273438 C 235.351562 293.082031 233.617188 293.851562 231.867188 294.578125 C 230.113281 295.304688 228.34375 295.984375 226.558594 296.625 C 224.773438 297.265625 222.972656 297.859375 221.15625 298.410156 C 219.339844 298.960938 217.511719 299.464844 215.671875 299.925781 C 213.832031 300.386719 211.980469 300.804688 210.121094 301.171875 C 208.261719 301.542969 206.394531 301.867188 204.515625 302.144531 C 202.640625 302.425781 200.757812 302.65625 198.871094 302.84375 C 196.980469 303.027344 195.089844 303.167969 193.195312 303.261719 C 191.300781 303.355469 189.40625 303.402344 187.507812 303.402344 C 185.613281 303.402344 183.714844 303.355469 181.820312 303.261719 C 179.925781 303.167969 178.035156 303.027344 176.148438 302.84375 C 174.257812 302.65625 172.378906 302.425781 170.5 302.144531 C 168.625 301.867188 166.757812 301.542969 164.894531 301.171875 C 163.035156 300.804688 161.183594 300.386719 159.34375 299.925781 C 157.503906 299.464844 155.675781 298.960938 153.859375 298.410156 C 152.046875 297.859375 150.246094 297.265625 148.460938 296.625 C 146.671875 295.984375 144.902344 295.304688 143.152344 294.578125 C 141.398438 293.851562 139.664062 293.082031 137.949219 292.273438 C 136.234375 291.460938 134.542969 290.609375 132.867188 289.714844 C 131.195312 288.820312 129.546875 287.886719 127.917969 286.910156 C 126.292969 285.933594 124.6875 284.921875 123.113281 283.867188 C 121.535156 282.8125 119.984375 281.71875 118.460938 280.589844 C 116.9375 279.460938 115.441406 278.292969 113.976562 277.089844 C 112.507812 275.886719 111.074219 274.648438 109.667969 273.375 C 108.261719 272.101562 106.886719 270.792969 105.546875 269.449219 C 104.207031 268.109375 102.898438 266.734375 101.625 265.332031 C 100.351562 263.925781 99.113281 262.488281 97.90625 261.023438 C 96.703125 259.554688 95.539062 258.0625 94.40625 256.539062 C 93.277344 255.015625 92.1875 253.464844 91.132812 251.886719 C 90.078125 250.308594 89.0625 248.707031 88.089844 247.078125 C 87.113281 245.453125 86.179688 243.800781 85.285156 242.128906 C 84.390625 240.457031 83.539062 238.761719 82.726562 237.046875 C 81.914062 235.332031 81.148438 233.597656 80.421875 231.847656 C 79.695312 230.09375 79.011719 228.324219 78.371094 226.539062 C 77.734375 224.753906 77.140625 222.953125 76.589844 221.136719 C 76.039062 219.320312 75.53125 217.492188 75.070312 215.652344 C 74.609375 213.8125 74.195312 211.964844 73.824219 210.101562 C 73.453125 208.242188 73.128906 206.375 72.851562 204.496094 C 72.574219 202.621094 72.339844 200.738281 72.15625 198.851562 C 71.96875 196.964844 71.828125 195.070312 71.738281 193.175781 C 71.644531 191.28125 71.597656 189.386719 71.597656 187.488281 C 71.597656 185.59375 71.644531 183.695312 71.738281 181.800781 C 71.828125 179.90625 71.96875 178.015625 72.15625 176.128906 C 72.339844 174.242188 72.574219 172.359375 72.851562 170.480469 C 73.128906 168.605469 73.453125 166.738281 73.824219 164.875 C 74.195312 163.015625 74.609375 161.164062 75.070312 159.324219 C 75.53125 157.484375 76.039062 155.65625 76.589844 153.84375 C 77.140625 152.027344 77.734375 150.226562 78.371094 148.441406 C 79.011719 146.652344 79.695312 144.886719 80.421875 143.132812 C 81.148438 141.378906 81.914062 139.644531 82.726562 137.929688 C 83.539062 136.214844 84.390625 134.523438 85.285156 132.847656 C 86.179688 131.175781 87.113281 129.527344 88.089844 127.898438 C 89.0625 126.273438 90.078125 124.671875 91.132812 123.09375 C 92.1875 121.515625 93.277344 119.964844 94.40625 118.441406 C 95.539062 116.917969 96.703125 115.421875 97.90625 113.957031 C 99.113281 112.488281 100.351562 111.054688 101.625 109.648438 C 102.898438 108.242188 104.207031 106.871094 105.546875 105.527344 C 106.886719 104.1875 108.261719 102.878906 109.667969 101.605469 C 111.074219 100.332031 112.507812 99.09375 113.976562 97.890625 C 115.441406 96.6875 116.9375 95.519531 118.460938 94.390625 C 119.984375 93.257812 121.535156 92.167969 123.113281 91.113281 C 124.6875 90.058594 126.292969 89.042969 127.917969 88.070312 C 129.546875 87.09375 131.195312 86.160156 132.867188 85.265625 C 134.542969 84.371094 136.234375 83.519531 137.949219 82.707031 C 139.664062 81.894531 141.398438 81.128906 143.152344 80.402344 C 144.902344 79.675781 146.671875 78.992188 148.460938 78.355469 C 150.246094 77.714844 152.046875 77.121094 153.859375 76.570312 C 155.675781 76.019531 157.503906 75.511719 159.34375 75.050781 C 161.183594 74.589844 163.035156 74.175781 164.894531 73.804688 C 166.757812 73.433594 168.625 73.109375 170.5 72.832031 C 172.378906 72.554688 174.257812 72.324219 176.148438 72.136719 C 178.035156 71.949219 179.925781 71.8125 181.820312 71.71875 C 183.714844 71.625 185.613281 71.578125 187.507812 71.578125 C 189.40625 71.578125 191.300781 71.625 193.195312 71.71875 C 195.089844 71.8125 196.980469 71.949219 198.871094 72.136719 C 200.757812 72.324219 202.640625 72.554688 204.515625 72.832031 C 206.394531 73.109375 208.261719 73.433594 210.121094 73.804688 C 211.980469 74.175781 213.832031 74.589844 215.671875 75.050781 C 217.511719 75.511719 219.339844 76.019531 221.15625 76.570312 C 222.972656 77.121094 224.773438 77.714844 226.558594 78.355469 C 228.34375 78.992188 230.113281 79.675781 231.867188 80.402344 C 233.617188 81.128906 235.351562 81.894531 237.066406 82.707031 C 238.78125 83.519531 240.476562 84.371094 242.148438 85.265625 C 243.820312 86.160156 245.472656 87.09375 247.097656 88.070312 C 248.726562 89.042969 250.328125 90.058594 251.90625 91.113281 C 253.484375 92.167969 255.03125 93.257812 256.558594 94.390625 C 258.082031 95.519531 259.574219 96.6875 261.042969 97.890625 C 262.507812 99.09375 263.945312 100.332031 265.351562 101.605469 C 266.753906 102.878906 268.128906 104.1875 269.46875 105.527344 C 270.8125 106.871094 272.117188 108.242188 273.394531 109.648438 C 274.667969 111.054688 275.90625 112.488281 277.109375 113.957031 C 278.3125 115.421875 279.480469 116.917969 280.609375 118.441406 C 281.738281 119.964844 282.832031 121.515625 283.886719 123.09375 C 284.9375 124.671875 285.953125 126.273438 286.929688 127.898438 C 287.902344 129.527344 288.839844 131.175781 289.734375 132.847656 C 290.628906 134.523438 291.480469 136.214844 292.289062 137.929688 C 293.101562 139.644531 293.871094 141.378906 294.597656 143.132812 C 295.324219 144.886719 296.003906 146.652344 296.644531 148.441406 C 297.28125 150.226562 297.878906 152.027344 298.429688 153.84375 C 298.980469 155.65625 299.484375 157.484375 299.945312 159.324219 C 300.40625 161.164062 300.824219 163.015625 301.191406 164.875 C 301.5625 166.738281 301.886719 168.605469 302.164062 170.480469 C 302.445312 172.359375 302.675781 174.242188 302.863281 176.128906 C 303.046875 178.015625 303.1875 179.90625 303.28125 181.800781 C 303.375 183.695312 303.417969 185.59375 303.417969 187.488281 Z M 303.417969 187.488281 " fill-opacity="1" fill-rule="nonzero"/><g clip-path="url(#60d95f5fa4)"><path fill="#050505" d="M 187.507812 306.183594 C 155.804688 306.183594 125.996094 293.839844 103.578125 271.421875 C 81.160156 249 68.816406 219.195312 68.816406 187.488281 C 68.816406 155.785156 81.160156 125.976562 103.578125 103.558594 C 125.996094 81.140625 155.804688 68.796875 187.507812 68.796875 C 219.214844 68.796875 249.019531 81.140625 271.4375 103.558594 C 293.859375 125.976562 306.203125 155.785156 306.203125 187.488281 C 306.203125 219.195312 293.859375 249 271.4375 271.421875 C 249.019531 293.839844 219.214844 306.183594 187.507812 306.183594 Z M 187.507812 74.359375 C 157.289062 74.359375 128.878906 86.128906 107.515625 107.496094 C 86.144531 128.863281 74.378906 157.269531 74.378906 187.488281 C 74.378906 217.707031 86.148438 246.113281 107.515625 267.484375 C 128.882812 288.847656 157.289062 300.617188 187.507812 300.617188 C 217.726562 300.617188 246.132812 288.847656 267.503906 267.484375 C 288.867188 246.113281 300.636719 217.707031 300.636719 187.488281 C 300.636719 157.269531 288.867188 128.863281 267.503906 107.496094 C 246.132812 86.128906 217.726562 74.359375 187.507812 74.359375 Z M 187.507812 257.417969 C 148.953125 257.417969 117.578125 226.050781 117.578125 187.488281 C 117.578125 148.933594 148.949219 117.558594 187.507812 117.558594 C 226.066406 117.558594 257.4375 148.929688 257.4375 187.488281 C 257.4375 226.050781 226.066406 257.417969 187.507812 257.417969 Z M 187.507812 123.128906 C 152.019531 123.128906 123.144531 152.003906 123.144531 187.496094 C 123.144531 222.984375 152.019531 251.859375 187.507812 251.859375 C 222.996094 251.859375 251.875 222.984375 251.875 187.488281 C 251.875 152 222.996094 123.128906 187.507812 123.128906 Z M 286.265625 187.488281 C 286.265625 173.816406 283.507812 160.570312 278.0625 148.117188 L 265.320312 153.6875 C 269.992188 164.371094 272.359375 175.742188 272.359375 187.488281 C 272.359375 199.230469 269.992188 210.605469 265.320312 221.292969 L 278.0625 226.863281 C 283.503906 214.410156 286.265625 201.164062 286.265625 187.488281 Z M 109.703125 221.292969 C 105.03125 210.605469 102.660156 199.234375 102.660156 187.488281 C 102.660156 175.75 105.03125 164.371094 109.703125 153.6875 L 96.953125 148.117188 C 91.507812 160.570312 88.75 173.820312 88.75 187.488281 C 88.75 201.164062 91.507812 214.410156 96.953125 226.863281 Z M 109.703125 221.292969 " fill-opacity="1" fill-rule="nonzero"/></g></svg>