<svg xmlns="http://www.w3.org/2000/svg" xmlns:xlink="http://www.w3.org/1999/xlink" width="500" zoomAndPan="magnify" viewBox="0 0 375 374.999991" height="500" preserveAspectRatio="xMidYMid meet" version="1.0"><defs><clipPath id="6247f4719d"><path d="M 0 3.207031 L 368.25 3.207031 L 368.25 371.457031 L 0 371.457031 Z M 0 3.207031 " clip-rule="nonzero"/></clipPath></defs><rect x="-37.5" width="450" fill="#ffffff" y="-37.499999" height="449.999989" fill-opacity="1"/><rect x="-37.5" width="450" fill="#ebe6e6" y="-37.499999" height="449.999989" fill-opacity="1"/><g clip-path="url(#6247f4719d)"><path fill="#fc573b" d="M 184.289062 371.785156 C 286.070312 371.785156 368.578125 289.273438 368.578125 187.496094 C 368.578125 85.714844 286.070312 3.207031 184.289062 3.207031 C 82.507812 3.207031 0 85.714844 0 187.496094 C 0 289.273438 82.507812 371.785156 184.289062 371.785156 Z M 100.589844 109.089844 L 184.289062 176.050781 L 267.988281 109.089844 L 270.40625 107.078125 L 98.171875 107.078125 Z M 279.359375 122.875 L 282.578125 120.199219 L 282.578125 258.976562 C 282.578125 263.910156 278.578125 267.910156 273.640625 267.910156 L 94.9375 267.910156 C 90.003906 267.910156 86 263.910156 86 258.976562 L 86 120.199219 L 89.214844 122.875 L 89.355469 122.988281 L 178.707031 194.472656 C 181.96875 197.082031 186.605469 197.082031 189.871094 194.472656 L 279.222656 122.988281 Z M 279.359375 122.875 " fill-opacity="1" fill-rule="evenodd"/></g></svg>