<svg xmlns="http://www.w3.org/2000/svg" xmlns:xlink="http://www.w3.org/1999/xlink" width="500" zoomAndPan="magnify" viewBox="0 0 375 374.999991" height="500" preserveAspectRatio="xMidYMid meet" version="1.0"><defs><g/><clipPath id="9018a7d540"><path d="M 73 73 L 305.890625 73 L 305.890625 306.5625 L 73 306.5625 Z M 73 73 " clip-rule="nonzero"/></clipPath><clipPath id="f2337edd21"><path d="M 141 61.3125 L 180 61.3125 L 180 102 L 141 102 Z M 141 61.3125 " clip-rule="nonzero"/></clipPath><clipPath id="aca3f5b4ea"><path d="M 68.800781 68.800781 L 306.550781 68.800781 L 306.550781 306.550781 L 68.800781 306.550781 Z M 68.800781 68.800781 " clip-rule="nonzero"/></clipPath><clipPath id="4ce96be303"><path d="M 111.085938 189 L 183 189 L 183 256 L 111.085938 256 Z M 111.085938 189 " clip-rule="nonzero"/></clipPath><clipPath id="2d251d9f50"><path d="M 119 111.085938 L 186 111.085938 L 186 183 L 119 183 Z M 119 111.085938 " clip-rule="nonzero"/></clipPath></defs><g clip-path="url(#9018a7d540)"><path fill="#3f6669" d="M 202.273438 77.023438 L 209.792969 78.066406 C 212.816406 78.472656 215.796875 79.078125 218.742188 79.878906 C 220.472656 80.339844 222.410156 80.625 224.402344 81.328125 L 230.632812 83.421875 C 241.191406 87.289062 250.984375 92.578125 260.015625 99.28125 C 265.84375 103.644531 271.199219 108.523438 276.085938 113.921875 C 280.972656 119.320312 285.300781 125.136719 289.066406 131.367188 C 293.550781 138.765625 297.15625 146.566406 299.890625 154.777344 C 302.621094 162.984375 304.410156 171.390625 305.25 180.003906 C 305.375 182.265625 305.511719 184.613281 305.636719 186.933594 C 305.636719 188.066406 305.816406 189.199219 305.785156 190.5 L 305.636719 193.988281 C 305.535156 196.3125 305.445312 198.65625 305.339844 201.011719 C 305.238281 203.367188 304.695312 205.78125 304.378906 208.191406 C 303.878906 213.0625 302.476562 217.742188 301.320312 222.554688 C 301.03125 223.765625 300.65625 224.945312 300.1875 226.101562 L 298.929688 229.609375 L 297.671875 233.144531 L 297.027344 234.910156 L 296.222656 236.621094 C 295.152344 238.886719 294.070312 241.152344 292.984375 243.417969 C 292.46875 244.597656 291.863281 245.730469 291.171875 246.816406 L 289.214844 250.113281 C 286.765625 254.640625 283.480469 258.628906 280.445312 262.84375 C 278.828125 264.859375 277.046875 266.738281 275.292969 268.710938 L 272.675781 271.632812 L 269.789062 274.25 C 267.839844 276.015625 265.960938 277.871094 263.933594 279.558594 L 257.613281 284.441406 C 248.925781 290.480469 239.492188 295.894531 229.296875 299.3125 L 225.515625 300.730469 L 221.605469 301.78125 C 219 302.449219 216.394531 303.222656 213.769531 303.808594 C 208.421875 304.582031 203.109375 305.804688 197.683594 305.871094 L 193.617188 306.109375 L 191.589844 306.222656 L 189.449219 306.222656 L 181.523438 305.882812 C 178.8125 305.742188 176.121094 305.441406 173.445312 304.976562 L 169.425781 304.332031 L 167.386719 304.023438 L 165.425781 303.539062 L 157.5 301.578125 C 154.882812 300.921875 152.390625 299.835938 149.84375 298.984375 L 146.035156 297.625 C 144.78125 297.160156 143.589844 296.492188 142.367188 295.960938 L 135.097656 292.5625 C 130.566406 289.753906 125.761719 287.308594 121.605469 283.976562 L 118.457031 281.554688 C 117.363281 280.804688 116.328125 279.984375 115.355469 279.085938 L 109.394531 273.804688 C 101.976562 266.398438 95.101562 258.449219 90.027344 249.523438 L 88.011719 246.261719 C 87.367188 245.128906 86.878906 243.996094 86.28125 242.863281 L 82.9375 236.066406 C 81.964844 233.746094 81.136719 231.367188 80.242188 229.046875 L 78.960938 225.546875 C 78.507812 224.414062 78.28125 223.15625 77.933594 221.976562 C 77.296875 219.585938 76.675781 217.207031 76.039062 214.839844 C 75.40625 212.472656 75.203125 210.050781 74.761719 207.671875 L 74.195312 204.105469 C 73.960938 202.925781 73.816406 201.738281 73.765625 200.535156 C 73.628906 198.15625 73.480469 195.789062 73.34375 193.433594 C 73.277344 192.1875 73.21875 190.953125 73.152344 189.730469 C 73.085938 188.507812 73.230469 187.464844 73.277344 186.332031 C 73.351562 184.066406 73.429688 181.84375 73.503906 179.664062 C 73.789062 177.351562 74.074219 175.050781 74.351562 172.765625 C 74.488281 171.632812 74.636719 170.5 74.773438 169.367188 C 74.90625 168.234375 75.234375 167.179688 75.460938 166.09375 L 76.84375 159.625 C 77.433594 157.519531 78.101562 155.457031 78.726562 153.398438 C 79.972656 149.367188 81.441406 145.417969 83.128906 141.550781 C 86.179688 134.648438 89.855469 128.097656 94.15625 121.898438 C 98.457031 115.699219 103.308594 109.964844 108.707031 104.691406 C 117.082031 96.511719 126.4375 89.671875 136.773438 84.171875 C 143.472656 80.753906 150.417969 77.949219 157.613281 75.753906 L 165.304688 73.660156 L 167.691406 84.53125 L 160.691406 86.320312 C 154.125 88.207031 147.769531 90.648438 141.632812 93.648438 C 132.125 98.527344 123.488281 104.632812 115.714844 111.964844 C 110.683594 116.722656 106.148438 121.914062 102.109375 127.535156 C 98.070312 133.160156 94.597656 139.113281 91.691406 145.398438 C 90.082031 148.933594 88.671875 152.542969 87.457031 156.226562 C 86.867188 158.121094 86.210938 160.011719 85.632812 161.890625 C 85.054688 163.769531 84.726562 165.84375 84.261719 167.835938 C 84.035156 168.84375 83.808594 169.84375 83.574219 170.851562 C 83.335938 171.859375 83.347656 172.910156 83.152344 173.917969 C 82.859375 175.945312 82.5625 177.996094 82.269531 180.046875 C 82.15625 182.253906 82.042969 184.476562 81.929688 186.71875 C 81.929688 187.851562 81.804688 188.984375 81.75 190.117188 L 81.894531 193.195312 C 81.988281 195.386719 82.078125 197.589844 82.167969 199.800781 C 82.195312 200.910156 82.308594 202.015625 82.507812 203.109375 L 82.996094 206.4375 C 83.367188 208.703125 83.515625 210.96875 84.128906 213.121094 C 84.738281 215.273438 85.261719 217.546875 85.78125 219.78125 C 86.085938 220.914062 86.269531 222.046875 86.675781 223.179688 L 87.808594 226.453125 C 88.613281 228.636719 89.324219 230.867188 90.199219 233.042969 C 91.070312 235.21875 92.214844 237.300781 93.222656 239.453125 C 93.742188 240.519531 94.195312 241.628906 94.785156 242.660156 L 96.621094 245.738281 C 101.21875 254.167969 107.550781 261.710938 114.402344 268.800781 L 119.863281 273.851562 C 120.765625 274.710938 121.722656 275.5 122.738281 276.21875 L 125.730469 278.484375 C 129.578125 281.710938 134.054688 284.058594 138.300781 286.796875 L 145.097656 290.195312 C 146.230469 290.738281 147.363281 291.328125 148.496094 291.828125 L 152.0625 293.175781 C 154.464844 294.011719 156.796875 295.089844 159.265625 295.746094 L 166.683594 297.714844 L 168.542969 298.214844 L 170.410156 298.519531 L 174.160156 299.132812 C 176.683594 299.628906 179.226562 299.964844 181.792969 300.128906 L 189.722656 300.59375 L 190.957031 300.59375 C 191.070312 300.59375 190.84375 300.59375 191.058594 300.59375 L 191.535156 300.59375 L 193.472656 300.515625 L 197.332031 300.355469 C 202.519531 300.355469 207.527344 299.28125 212.703125 298.632812 C 215.230469 298.125 217.710938 297.421875 220.222656 296.820312 L 223.972656 295.882812 L 227.609375 294.589844 C 237.453125 291.488281 246.523438 286.433594 254.972656 280.773438 L 261.136719 276.242188 C 263.105469 274.644531 264.941406 272.84375 266.796875 271.222656 L 269.617188 268.6875 L 272.191406 265.914062 C 273.878906 264.042969 275.65625 262.265625 277.253906 260.339844 C 280.242188 256.320312 283.492188 252.5 285.917969 248.175781 L 287.863281 245.027344 C 288.550781 244 289.15625 242.929688 289.675781 241.808594 L 292.929688 235.21875 L 293.730469 233.574219 L 294.390625 231.867188 L 295.65625 228.46875 L 296.9375 225.070312 C 297.40625 223.96875 297.785156 222.835938 298.070312 221.671875 C 299.203125 217.027344 300.71875 212.464844 301.253906 207.820312 C 301.605469 205.554688 302.070312 203.230469 302.316406 200.910156 C 302.566406 198.589844 302.589844 196.210938 302.726562 193.886719 L 302.929688 190.410156 C 302.929688 189.390625 302.859375 188.144531 302.839844 187.011719 C 302.746094 184.746094 302.667969 182.484375 302.578125 180.21875 C 301.894531 171.753906 300.28125 163.472656 297.742188 155.375 C 295.203125 147.273438 291.796875 139.554688 287.523438 132.214844 C 283.902344 126 279.722656 120.183594 274.980469 114.773438 C 270.238281 109.363281 265.023438 104.453125 259.335938 100.050781 C 250.472656 93.261719 240.828125 87.871094 230.40625 83.875 L 224.234375 81.699219 C 222.308594 80.976562 220.394531 80.660156 218.671875 80.171875 C 215.75 79.320312 212.78125 78.667969 209.769531 78.210938 Z M 202.273438 77.023438 " fill-opacity="1" fill-rule="nonzero"/></g><g clip-path="url(#f2337edd21)"><path fill="#3f6669" d="M 147.476562 101.984375 L 163.21875 79.785156 L 141.019531 64.054688 L 157.113281 61.3125 L 179.3125 77.046875 L 163.582031 99.234375 Z M 147.476562 101.984375 " fill-opacity="1" fill-rule="nonzero"/></g><path fill="#ebe6e6" d="M 303.417969 187.488281 C 303.417969 189.386719 303.375 191.28125 303.28125 193.175781 C 303.1875 195.070312 303.046875 196.964844 302.863281 198.851562 C 302.675781 200.738281 302.445312 202.621094 302.164062 204.496094 C 301.886719 206.375 301.5625 208.242188 301.191406 210.101562 C 300.824219 211.964844 300.40625 213.8125 299.945312 215.652344 C 299.484375 217.492188 298.980469 219.320312 298.429688 221.136719 C 297.878906 222.953125 297.28125 224.753906 296.644531 226.539062 C 296.003906 228.324219 295.324219 230.09375 294.597656 231.847656 C 293.871094 233.597656 293.101562 235.332031 292.289062 237.046875 C 291.480469 238.761719 290.628906 240.457031 289.734375 242.128906 C 288.839844 243.800781 287.902344 245.453125 286.929688 247.078125 C 285.953125 248.707031 284.9375 250.308594 283.886719 251.886719 C 282.832031 253.464844 281.738281 255.015625 280.609375 256.539062 C 279.480469 258.0625 278.3125 259.554688 277.109375 261.023438 C 275.90625 262.488281 274.667969 263.925781 273.394531 265.332031 C 272.117188 266.734375 270.8125 268.109375 269.46875 269.449219 C 268.128906 270.792969 266.753906 272.101562 265.351562 273.375 C 263.945312 274.648438 262.507812 275.886719 261.042969 277.089844 C 259.574219 278.292969 258.082031 279.460938 256.558594 280.589844 C 255.03125 281.71875 253.484375 282.8125 251.90625 283.867188 C 250.328125 284.921875 248.726562 285.933594 247.097656 286.910156 C 245.472656 287.886719 243.820312 288.820312 242.148438 289.714844 C 240.476562 290.609375 238.78125 291.460938 237.066406 292.273438 C 235.351562 293.082031 233.617188 293.851562 231.867188 294.578125 C 230.113281 295.304688 228.34375 295.984375 226.558594 296.625 C 224.773438 297.265625 222.972656 297.859375 221.15625 298.410156 C 219.339844 298.960938 217.511719 299.464844 215.671875 299.925781 C 213.832031 300.386719 211.980469 300.804688 210.121094 301.171875 C 208.261719 301.542969 206.394531 301.867188 204.515625 302.144531 C 202.640625 302.425781 200.757812 302.65625 198.871094 302.84375 C 196.980469 303.027344 195.089844 303.167969 193.195312 303.261719 C 191.300781 303.355469 189.40625 303.402344 187.507812 303.402344 C 185.613281 303.402344 183.714844 303.355469 181.820312 303.261719 C 179.925781 303.167969 178.035156 303.027344 176.148438 302.84375 C 174.257812 302.65625 172.378906 302.425781 170.5 302.144531 C 168.625 301.867188 166.757812 301.542969 164.894531 301.171875 C 163.035156 300.804688 161.183594 300.386719 159.34375 299.925781 C 157.503906 299.464844 155.675781 298.960938 153.859375 298.410156 C 152.046875 297.859375 150.246094 297.265625 148.460938 296.625 C 146.671875 295.984375 144.902344 295.304688 143.152344 294.578125 C 141.398438 293.851562 139.664062 293.082031 137.949219 292.273438 C 136.234375 291.460938 134.542969 290.609375 132.867188 289.714844 C 131.195312 288.820312 129.546875 287.886719 127.917969 286.910156 C 126.292969 285.933594 124.6875 284.921875 123.113281 283.867188 C 121.535156 282.8125 119.984375 281.71875 118.460938 280.589844 C 116.9375 279.460938 115.441406 278.292969 113.976562 277.089844 C 112.507812 275.886719 111.074219 274.648438 109.667969 273.375 C 108.261719 272.101562 106.886719 270.792969 105.546875 269.449219 C 104.207031 268.109375 102.898438 266.734375 101.625 265.332031 C 100.351562 263.925781 99.113281 262.488281 97.90625 261.023438 C 96.703125 259.554688 95.539062 258.0625 94.40625 256.539062 C 93.277344 255.015625 92.1875 253.464844 91.132812 251.886719 C 90.078125 250.308594 89.0625 248.707031 88.089844 247.078125 C 87.113281 245.453125 86.179688 243.800781 85.285156 242.128906 C 84.390625 240.457031 83.539062 238.761719 82.726562 237.046875 C 81.914062 235.332031 81.148438 233.597656 80.421875 231.847656 C 79.695312 230.09375 79.011719 228.324219 78.371094 226.539062 C 77.734375 224.753906 77.140625 222.953125 76.589844 221.136719 C 76.039062 219.320312 75.53125 217.492188 75.070312 215.652344 C 74.609375 213.8125 74.195312 211.964844 73.824219 210.101562 C 73.453125 208.242188 73.128906 206.375 72.851562 204.496094 C 72.574219 202.621094 72.339844 200.738281 72.15625 198.851562 C 71.96875 196.964844 71.828125 195.070312 71.738281 193.175781 C 71.644531 191.28125 71.597656 189.386719 71.597656 187.488281 C 71.597656 185.59375 71.644531 183.695312 71.738281 181.800781 C 71.828125 179.90625 71.96875 178.015625 72.15625 176.128906 C 72.339844 174.242188 72.574219 172.359375 72.851562 170.480469 C 73.128906 168.605469 73.453125 166.738281 73.824219 164.875 C 74.195312 163.015625 74.609375 161.164062 75.070312 159.324219 C 75.53125 157.484375 76.039062 155.65625 76.589844 153.84375 C 77.140625 152.027344 77.734375 150.226562 78.371094 148.441406 C 79.011719 146.652344 79.695312 144.886719 80.421875 143.132812 C 81.148438 141.378906 81.914062 139.644531 82.726562 137.929688 C 83.539062 136.214844 84.390625 134.523438 85.285156 132.847656 C 86.179688 131.175781 87.113281 129.527344 88.089844 127.898438 C 89.0625 126.273438 90.078125 124.671875 91.132812 123.09375 C 92.1875 121.515625 93.277344 119.964844 94.40625 118.441406 C 95.539062 116.917969 96.703125 115.421875 97.90625 113.957031 C 99.113281 112.488281 100.351562 111.054688 101.625 109.648438 C 102.898438 108.242188 104.207031 106.871094 105.546875 105.527344 C 106.886719 104.1875 108.261719 102.878906 109.667969 101.605469 C 111.074219 100.332031 112.507812 99.09375 113.976562 97.890625 C 115.441406 96.6875 116.9375 95.519531 118.460938 94.390625 C 119.984375 93.257812 121.535156 92.167969 123.113281 91.113281 C 124.6875 90.058594 126.292969 89.042969 127.917969 88.070312 C 129.546875 87.09375 131.195312 86.160156 132.867188 85.265625 C 134.542969 84.371094 136.234375 83.519531 137.949219 82.707031 C 139.664062 81.894531 141.398438 81.128906 143.152344 80.402344 C 144.902344 79.675781 146.671875 78.992188 148.460938 78.355469 C 150.246094 77.714844 152.046875 77.121094 153.859375 76.570312 C 155.675781 76.019531 157.503906 75.511719 159.34375 75.050781 C 161.183594 74.589844 163.035156 74.175781 164.894531 73.804688 C 166.757812 73.433594 168.625 73.109375 170.5 72.832031 C 172.378906 72.554688 174.257812 72.324219 176.148438 72.136719 C 178.035156 71.949219 179.925781 71.8125 181.820312 71.71875 C 183.714844 71.625 185.613281 71.578125 187.507812 71.578125 C 189.40625 71.578125 191.300781 71.625 193.195312 71.71875 C 195.089844 71.8125 196.980469 71.949219 198.871094 72.136719 C 200.757812 72.324219 202.640625 72.554688 204.515625 72.832031 C 206.394531 73.109375 208.261719 73.433594 210.121094 73.804688 C 211.980469 74.175781 213.832031 74.589844 215.671875 75.050781 C 217.511719 75.511719 219.339844 76.019531 221.15625 76.570312 C 222.972656 77.121094 224.773438 77.714844 226.558594 78.355469 C 228.34375 78.992188 230.113281 79.675781 231.867188 80.402344 C 233.617188 81.128906 235.351562 81.894531 237.066406 82.707031 C 238.78125 83.519531 240.476562 84.371094 242.148438 85.265625 C 243.820312 86.160156 245.472656 87.09375 247.097656 88.070312 C 248.726562 89.042969 250.328125 90.058594 251.90625 91.113281 C 253.484375 92.167969 255.03125 93.257812 256.558594 94.390625 C 258.082031 95.519531 259.574219 96.6875 261.042969 97.890625 C 262.507812 99.09375 263.945312 100.332031 265.351562 101.605469 C 266.753906 102.878906 268.128906 104.1875 269.46875 105.527344 C 270.8125 106.871094 272.117188 108.242188 273.394531 109.648438 C 274.667969 111.054688 275.90625 112.488281 277.109375 113.957031 C 278.3125 115.421875 279.480469 116.917969 280.609375 118.441406 C 281.738281 119.964844 282.832031 121.515625 283.886719 123.09375 C 284.9375 124.671875 285.953125 126.273438 286.929688 127.898438 C 287.902344 129.527344 288.839844 131.175781 289.734375 132.847656 C 290.628906 134.523438 291.480469 136.214844 292.289062 137.929688 C 293.101562 139.644531 293.871094 141.378906 294.597656 143.132812 C 295.324219 144.886719 296.003906 146.652344 296.644531 148.441406 C 297.28125 150.226562 297.878906 152.027344 298.429688 153.84375 C 298.980469 155.65625 299.484375 157.484375 299.945312 159.324219 C 300.40625 161.164062 300.824219 163.015625 301.191406 164.875 C 301.5625 166.738281 301.886719 168.605469 302.164062 170.480469 C 302.445312 172.359375 302.675781 174.242188 302.863281 176.128906 C 303.046875 178.015625 303.1875 179.90625 303.28125 181.800781 C 303.375 183.695312 303.417969 185.59375 303.417969 187.488281 Z M 303.417969 187.488281 " fill-opacity="1" fill-rule="nonzero"/><g clip-path="url(#aca3f5b4ea)"><path fill="#3f6669" d="M 187.507812 306.183594 C 155.804688 306.183594 125.996094 293.839844 103.578125 271.421875 C 81.160156 249 68.816406 219.195312 68.816406 187.488281 C 68.816406 155.785156 81.160156 125.976562 103.578125 103.558594 C 125.996094 81.140625 155.804688 68.796875 187.507812 68.796875 C 219.214844 68.796875 249.019531 81.140625 271.4375 103.558594 C 293.859375 125.976562 306.203125 155.785156 306.203125 187.488281 C 306.203125 219.195312 293.859375 249 271.4375 271.421875 C 249.019531 293.839844 219.214844 306.183594 187.507812 306.183594 Z M 187.507812 74.359375 C 157.289062 74.359375 128.878906 86.128906 107.515625 107.496094 C 86.144531 128.863281 74.378906 157.269531 74.378906 187.488281 C 74.378906 217.707031 86.148438 246.113281 107.515625 267.484375 C 128.882812 288.847656 157.289062 300.617188 187.507812 300.617188 C 217.726562 300.617188 246.132812 288.847656 267.503906 267.484375 C 288.867188 246.113281 300.636719 217.707031 300.636719 187.488281 C 300.636719 157.269531 288.867188 128.863281 267.503906 107.496094 C 246.132812 86.128906 217.726562 74.359375 187.507812 74.359375 Z M 187.507812 257.417969 C 148.953125 257.417969 117.578125 226.050781 117.578125 187.488281 C 117.578125 148.933594 148.949219 117.558594 187.507812 117.558594 C 226.066406 117.558594 257.4375 148.929688 257.4375 187.488281 C 257.4375 226.050781 226.066406 257.417969 187.507812 257.417969 Z M 187.507812 123.128906 C 152.019531 123.128906 123.144531 152.003906 123.144531 187.496094 C 123.144531 222.984375 152.019531 251.859375 187.507812 251.859375 C 222.996094 251.859375 251.875 222.984375 251.875 187.488281 C 251.875 152 222.996094 123.128906 187.507812 123.128906 Z M 286.265625 187.488281 C 286.265625 173.816406 283.507812 160.570312 278.0625 148.117188 L 265.320312 153.6875 C 269.992188 164.371094 272.359375 175.742188 272.359375 187.488281 C 272.359375 199.230469 269.992188 210.605469 265.320312 221.292969 L 278.0625 226.863281 C 283.503906 214.410156 286.265625 201.164062 286.265625 187.488281 Z M 109.703125 221.292969 C 105.03125 210.605469 102.660156 199.234375 102.660156 187.488281 C 102.660156 175.75 105.03125 164.371094 109.703125 153.6875 L 96.953125 148.117188 C 91.507812 160.570312 88.75 173.820312 88.75 187.488281 C 88.75 201.164062 91.507812 214.410156 96.953125 226.863281 Z M 109.703125 221.292969 " fill-opacity="1" fill-rule="nonzero"/></g><g fill="#3f6669" fill-opacity="1"><g transform="translate(142.273063, 117.223151)"><g><path d="M -6.75 -17 L 0.296875 -20.640625 C 2.367188 -21.710938 4.226562 -22.050781 5.875 -21.65625 C 7.519531 -21.269531 8.804688 -20.175781 9.734375 -18.375 C 10.710938 -16.476562 10.898438 -14.710938 10.296875 -13.078125 C 9.703125 -11.441406 8.367188 -10.085938 6.296875 -9.015625 L 3.375 -7.515625 L 5.734375 -2.96875 L 1.609375 -0.828125 Z M -0.953125 -15.90625 L 1.71875 -10.75 L 4.4375 -12.140625 C 5.34375 -12.609375 5.925781 -13.195312 6.1875 -13.90625 C 6.457031 -14.613281 6.367188 -15.390625 5.921875 -16.234375 C 5.492188 -17.066406 4.921875 -17.566406 4.203125 -17.734375 C 3.484375 -17.910156 2.671875 -17.765625 1.765625 -17.296875 Z M -0.953125 -15.90625 "/></g></g></g><g fill="#3f6669" fill-opacity="1"><g transform="translate(156.455581, 109.883197)"><g><path d="M 5.015625 -5.609375 L 12.390625 -7.90625 L 13.53125 -4.203125 L 1.734375 -0.53125 L -3.65625 -17.921875 L 0.765625 -19.296875 Z M 5.015625 -5.609375 "/></g></g></g><g fill="#3f6669" fill-opacity="1"><g transform="translate(168.527687, 105.691229)"><g><path d="M 13.4375 -4.890625 L 5.546875 -4 L 4.59375 -0.515625 L -0.125 0.015625 L 5.640625 -18.953125 L 10.375 -19.484375 L 20.03125 -2.25 L 15.109375 -1.703125 Z M 11.71875 -8.21875 L 8.375 -14.625 L 6.5 -7.625 Z M 11.71875 -8.21875 "/></g></g></g><g fill="#3f6669" fill-opacity="1"><g transform="translate(186.5383, 103.686615)"><g><path d="M 16.890625 -13.109375 L 11.4375 -13.578125 L 10.21875 0.859375 L 5.59375 0.46875 L 6.8125 -13.96875 L 1.40625 -14.421875 L 1.71875 -18.140625 L 17.203125 -16.828125 Z M 16.890625 -13.109375 "/></g></g></g><g fill="#3f6669" fill-opacity="1"><g transform="translate(200.711221, 104.738416)"><g><path d="M 18.90625 -9.984375 L 13.59375 -11.390625 L 9.90625 2.609375 L 5.421875 1.4375 L 9.109375 -12.5625 L 3.875 -13.953125 L 4.828125 -17.5625 L 19.859375 -13.59375 Z M 18.90625 -9.984375 "/></g></g></g><g fill="#3f6669" fill-opacity="1"><g transform="translate(214.352623, 107.876101)"><g><path d="M 17.515625 -11.828125 C 20.046875 -10.578125 21.757812 -8.742188 22.65625 -6.328125 C 23.550781 -3.921875 23.414062 -1.539062 22.25 0.8125 C 21.070312 3.195312 19.242188 4.769531 16.765625 5.53125 C 14.285156 6.300781 11.785156 6.0625 9.265625 4.8125 C 6.753906 3.570312 5.050781 1.742188 4.15625 -0.671875 C 3.269531 -3.097656 3.421875 -5.507812 4.609375 -7.90625 C 5.785156 -10.28125 7.597656 -11.835938 10.046875 -12.578125 C 12.503906 -13.316406 14.992188 -13.066406 17.515625 -11.828125 Z M 15.828125 -8.328125 C 14.566406 -8.960938 13.253906 -9.039062 11.890625 -8.5625 C 10.523438 -8.082031 9.503906 -7.15625 8.828125 -5.78125 C 8.148438 -4.414062 8.03125 -3.039062 8.46875 -1.65625 C 8.914062 -0.269531 9.769531 0.734375 11.03125 1.359375 C 12.289062 1.984375 13.59375 2.039062 14.9375 1.53125 C 16.28125 1.03125 17.289062 0.0976562 17.96875 -1.265625 C 18.644531 -2.640625 18.769531 -4.003906 18.34375 -5.359375 C 17.925781 -6.710938 17.085938 -7.703125 15.828125 -8.328125 Z M 15.828125 -8.328125 "/></g></g></g><g clip-path="url(#4ce96be303)"><path fill="#ebe6e6" d="M 181.554688 250.378906 C 175.125 249.78125 168.878906 248.210938 162.917969 245.691406 C 155.398438 242.511719 148.644531 237.957031 142.839844 232.15625 C 137.039062 226.351562 132.484375 219.597656 129.304688 212.078125 C 127.519531 207.863281 126.214844 203.507812 125.394531 199.042969 L 132.167969 203.507812 L 134.996094 199.214844 L 120.582031 189.714844 L 111.085938 204.128906 L 115.378906 206.957031 L 119.816406 200.222656 C 119.96875 200.558594 120.121094 200.886719 120.269531 201.203125 C 126.230469 230.601562 150.988281 253.175781 181.457031 255.835938 C 181.777344 255.863281 182.050781 255.613281 182.050781 255.292969 L 182.050781 250.921875 C 182.050781 250.636719 181.835938 250.402344 181.554688 250.378906 " fill-opacity="1" fill-rule="nonzero"/></g><path fill="#ebe6e6" d="M 250.378906 193.4375 C 249.78125 199.871094 248.210938 206.117188 245.691406 212.078125 C 242.511719 219.597656 237.957031 226.351562 232.15625 232.15625 C 226.355469 237.957031 219.597656 242.511719 212.078125 245.691406 C 207.863281 247.472656 203.507812 248.78125 199.042969 249.601562 L 203.507812 242.828125 L 199.214844 240 L 189.714844 254.410156 L 204.128906 263.910156 L 206.957031 259.617188 L 200.222656 255.179688 C 200.558594 255.023438 200.886719 254.875 201.203125 254.726562 C 230.605469 248.765625 253.175781 224.003906 255.835938 193.535156 C 255.863281 193.21875 255.613281 192.945312 255.292969 192.945312 L 250.917969 192.945312 C 250.636719 192.945312 250.40625 193.160156 250.378906 193.4375 " fill-opacity="1" fill-rule="nonzero"/><path fill="#ebe6e6" d="M 193.441406 124.617188 C 199.871094 125.214844 206.117188 126.78125 212.078125 129.304688 C 219.597656 132.484375 226.351562 137.039062 232.15625 142.839844 C 237.957031 148.640625 242.511719 155.398438 245.691406 162.917969 C 247.472656 167.132812 248.777344 171.492188 249.601562 175.953125 L 242.828125 171.492188 L 240 175.78125 L 254.410156 185.28125 L 263.910156 170.867188 L 259.617188 168.039062 L 255.179688 174.773438 C 255.023438 174.4375 254.875 174.109375 254.726562 173.792969 C 248.765625 144.394531 224.003906 121.820312 193.535156 119.160156 C 193.21875 119.132812 192.941406 119.382812 192.941406 119.703125 L 192.941406 124.074219 C 192.941406 124.359375 193.15625 124.59375 193.441406 124.617188 " fill-opacity="1" fill-rule="nonzero"/><g clip-path="url(#2d251d9f50)"><path fill="#ebe6e6" d="M 124.617188 181.554688 C 125.214844 175.125 126.785156 168.878906 129.304688 162.917969 C 132.484375 155.398438 137.039062 148.640625 142.839844 142.839844 C 148.644531 137.039062 155.398438 132.484375 162.917969 129.304688 C 167.132812 127.523438 171.488281 126.214844 175.953125 125.394531 L 171.488281 132.167969 L 175.78125 134.996094 L 185.28125 120.582031 L 170.867188 111.085938 L 168.039062 115.378906 L 174.773438 119.816406 C 174.4375 119.96875 174.109375 120.121094 173.792969 120.269531 C 144.394531 126.230469 121.820312 150.992188 119.160156 181.460938 C 119.132812 181.777344 119.382812 182.050781 119.703125 182.050781 L 124.074219 182.050781 C 124.359375 182.050781 124.59375 181.835938 124.617188 181.554688 " fill-opacity="1" fill-rule="nonzero"/></g></svg>