<svg xmlns="http://www.w3.org/2000/svg" xmlns:xlink="http://www.w3.org/1999/xlink" width="500" zoomAndPan="magnify" viewBox="0 0 375 374.999991" height="500" preserveAspectRatio="xMidYMid meet" version="1.0"><defs><clipPath id="2a8c953dae"><path d="M 187.5 0 C 83.945312 0 0 83.945312 0 187.5 C 0 291.054688 83.945312 375 187.5 375 C 291.054688 375 375 291.054688 375 187.5 C 375 83.945312 291.054688 0 187.5 0 Z M 187.5 0 " clip-rule="nonzero"/></clipPath><clipPath id="af6937965a"><path d="M 52.722656 52.722656 L 321.972656 52.722656 L 321.972656 321.972656 L 52.722656 321.972656 Z M 52.722656 52.722656 " clip-rule="nonzero"/></clipPath></defs><rect x="-37.5" width="450" fill="#ffffff" y="-37.499999" height="449.999989" fill-opacity="1"/><rect x="-37.5" width="450" fill="#ebe6e6" y="-37.499999" height="449.999989" fill-opacity="1"/><g clip-path="url(#2a8c953dae)"><rect x="-37.5" width="450" fill="#0277b5" y="-37.499999" height="449.999989" fill-opacity="1"/></g><g clip-path="url(#af6937965a)"><path fill="#ffffff" d="M 299.757812 52.722656 L 75.375 52.722656 C 62.96875 52.722656 52.992188 62.835938 52.992188 75.105469 L 52.992188 299.890625 C 52.992188 312.296875 63.105469 322.277344 75.375 322.277344 L 299.621094 322.277344 C 312.027344 322.277344 322.007812 312.164062 322.007812 299.890625 L 322.007812 75.105469 C 322.140625 62.835938 312.164062 52.722656 299.757812 52.722656 Z M 132.683594 275.078125 L 92.90625 275.078125 L 92.90625 155.609375 L 132.683594 155.609375 Z M 112.726562 141.179688 C 100.1875 141.179688 90.074219 131.066406 90.074219 118.523438 C 90.074219 105.984375 100.1875 95.871094 112.726562 95.871094 C 125.265625 95.871094 135.382812 105.984375 135.382812 118.523438 C 135.382812 131.066406 125.265625 141.179688 112.726562 141.179688 Z M 282.363281 275.078125 L 242.449219 275.078125 L 241.503906 204.152344 C 241.503906 204.152344 242.449219 185.273438 221.816406 185.410156 C 201.183594 185.542969 198.351562 204.152344 198.351562 204.152344 L 198.351562 275.078125 L 158.167969 275.078125 L 158.167969 155.609375 L 196.734375 155.609375 L 196.734375 172.058594 C 196.734375 172.058594 198.351562 166.664062 207.253906 160.328125 C 216.152344 153.988281 230.851562 152.640625 237.1875 152.910156 C 243.527344 153.179688 252.15625 152.101562 266.585938 162.082031 C 282.09375 172.734375 282.496094 200.644531 282.496094 200.644531 Z M 282.363281 275.078125 " fill-opacity="1" fill-rule="nonzero"/></g></svg>