<svg xmlns="http://www.w3.org/2000/svg" xmlns:xlink="http://www.w3.org/1999/xlink" width="500" zoomAndPan="magnify" viewBox="0 0 375 374.999991" height="500" preserveAspectRatio="xMidYMid meet" version="1.0"><defs><clipPath id="50f5abceb3"><path d="M 87 303 L 291 303 L 291 374.742188 L 87 374.742188 Z M 87 303 " clip-rule="nonzero"/></clipPath><clipPath id="1c8e188a88"><path d="M 130 327.203125 L 248 327.203125 L 248 374.742188 L 130 374.742188 Z M 130 327.203125 " clip-rule="nonzero"/></clipPath><clipPath id="3efde9c216"><path d="M 216.308594 337.949219 C 217 335.707031 217.117188 332.25 210.167969 333.816406 C 210.167969 333.816406 191.179688 336.515625 190.273438 358.582031 L 189.839844 400.847656 L 185.277344 400.847656 L 184.847656 358.582031 C 183.941406 336.519531 164.957031 333.816406 164.957031 333.816406 C 158.027344 332.25 158.117188 335.703125 158.8125 337.945312 C 152 326.398438 133.761719 327.890625 133.761719 327.890625 C 127.429688 330.140625 133.308594 334.191406 133.308594 334.191406 C 143.253906 337.789062 144.164062 348.597656 144.164062 348.597656 L 144.164062 379.132812 L 145.214844 402.738281 C 147.472656 413.253906 153.042969 419.46875 158.507812 423.128906 L 216.722656 423.0625 C 223.761719 418.304688 230.964844 409.285156 230.964844 392.253906 L 230.964844 348.597656 C 230.964844 348.597656 231.867188 337.789062 241.816406 334.191406 C 251.765625 330.589844 247.691406 330.136719 241.363281 327.890625 C 241.363281 327.890625 240.589844 327.828125 239.308594 327.824219 C 234.34375 327.824219 221.722656 328.773438 216.3125 337.949219 M 161.339844 381.46875 L 161.339844 348.152344 C 161.339844 344.898438 160.761719 342.160156 159.777344 339.859375 C 166.324219 344.941406 166.761719 357.683594 166.761719 357.683594 L 166.761719 399.265625 C 160.246094 394.675781 161.339844 381.460938 161.339844 381.460938 M 208.367188 357.675781 C 208.367188 357.675781 208.808594 344.933594 215.351562 339.851562 C 214.367188 342.152344 213.792969 344.890625 213.792969 348.144531 L 213.792969 381.464844 C 213.792969 381.464844 214.882812 393.742188 208.367188 398.796875 Z M 208.367188 357.675781 " clip-rule="nonzero"/></clipPath></defs><rect x="-37.5" width="450" fill="#ffffff" y="-37.499999" height="449.999989" fill-opacity="1"/><rect x="-37.5" width="450" fill="#ebe6e6" y="-37.499999" height="449.999989" fill-opacity="1"/><path fill="#ffffff" d="M 168.210938 9.09375 C 97.15625 16.972656 39.253906 74.304688 30.679688 145.25 C 30.402344 147.480469 30.171875 149.710938 29.992188 151.949219 C 29.808594 154.183594 29.675781 156.425781 29.589844 158.667969 C 29.503906 160.910156 29.46875 163.152344 29.476562 165.398438 C 29.488281 167.644531 29.546875 169.886719 29.652344 172.128906 C 29.761719 174.371094 29.914062 176.609375 30.117188 178.84375 C 30.320312 181.078125 30.570312 183.308594 30.871094 185.53125 C 31.167969 187.757812 31.511719 189.972656 31.90625 192.183594 C 32.300781 194.394531 32.738281 196.59375 33.226562 198.785156 C 33.714844 200.976562 34.25 203.15625 34.832031 205.324219 C 35.410156 207.492188 36.039062 209.644531 36.710938 211.785156 C 37.386719 213.925781 38.105469 216.054688 38.867188 218.164062 C 39.632812 220.273438 40.441406 222.367188 41.296875 224.441406 C 42.148438 226.515625 43.046875 228.574219 43.992188 230.609375 C 44.933594 232.648438 45.917969 234.664062 46.945312 236.660156 C 47.976562 238.652344 49.046875 240.625 50.160156 242.574219 C 51.273438 244.523438 52.425781 246.445312 53.621094 248.347656 C 54.816406 250.246094 56.054688 252.117188 57.328125 253.964844 C 58.605469 255.8125 59.917969 257.628906 61.273438 259.421875 C 62.628906 261.210938 64.019531 262.972656 65.449219 264.703125 C 66.875 266.433594 68.34375 268.132812 69.84375 269.796875 C 71.347656 271.464844 72.882812 273.101562 74.457031 274.703125 C 76.027344 276.304688 77.632812 277.871094 79.273438 279.40625 C 80.910156 280.9375 82.582031 282.433594 84.285156 283.898438 C 85.988281 285.359375 87.722656 286.78125 89.488281 288.167969 C 91.253906 289.554688 93.046875 290.90625 94.867188 292.214844 C 96.691406 293.527344 98.539062 294.796875 100.417969 296.027344 C 102.292969 297.257812 104.195312 298.449219 106.125 299.597656 C 108.050781 300.746094 110.003906 301.855469 111.976562 302.921875 C 113.953125 303.988281 115.949219 305.007812 117.96875 305.988281 C 119.988281 306.96875 122.027344 307.90625 124.085938 308.800781 C 126.144531 309.691406 128.222656 310.539062 130.316406 311.34375 C 132.414062 312.148438 134.527344 312.90625 136.652344 313.621094 C 144.496094 314.875 147.003906 310.015625 147.003906 305.789062 L 147.003906 279.300781 C 103.597656 288.730469 94.359375 258.3125 94.359375 258.3125 C 87.171875 240.132812 76.964844 235.277344 76.964844 235.277344 C 62.703125 225.558594 78.074219 225.882812 78.074219 225.882812 C 93.738281 226.988281 102.046875 242.019531 102.046875 242.019531 C 115.679688 265.835938 138.707031 258.78125 147.636719 255.019531 C 149.042969 244.835938 153.179688 237.9375 157.507812 234.023438 C 122.667969 230.105469 86.207031 216.628906 86.207031 156.941406 C 86.207031 139.550781 92.164062 125.609375 102.34375 114.480469 C 100.78125 110.566406 95.289062 94.273438 103.910156 73.121094 C 103.910156 73.121094 117.074219 68.882812 147.003906 89.101562 C 153.386719 87.382812 159.859375 86.089844 166.414062 85.222656 C 172.972656 84.355469 179.554688 83.921875 186.167969 83.921875 C 192.78125 83.921875 199.367188 84.355469 205.921875 85.222656 C 212.480469 86.089844 218.949219 87.382812 225.335938 89.101562 C 255.285156 68.882812 268.429688 73.121094 268.429688 73.121094 C 277.035156 94.273438 271.554688 110.566406 269.992188 114.480469 C 280.175781 125.574219 286.132812 139.550781 286.132812 156.941406 C 286.132812 216.785156 249.460938 229.953125 214.53125 233.867188 C 220.167969 238.726562 225.335938 248.285156 225.335938 262.851562 L 225.335938 305.789062 C 225.335938 310.015625 227.84375 315.027344 235.839844 313.621094 C 238.109375 312.859375 240.363281 312.046875 242.597656 311.183594 C 244.832031 310.316406 247.042969 309.402344 249.238281 308.4375 C 251.429688 307.472656 253.597656 306.457031 255.742188 305.390625 C 257.890625 304.324219 260.007812 303.210938 262.101562 302.050781 C 264.199219 300.886719 266.265625 299.679688 268.304688 298.421875 C 270.34375 297.164062 272.351562 295.859375 274.332031 294.511719 C 276.3125 293.164062 278.257812 291.769531 280.175781 290.332031 C 282.089844 288.894531 283.972656 287.410156 285.820312 285.886719 C 287.667969 284.363281 289.476562 282.796875 291.253906 281.191406 C 293.03125 279.582031 294.769531 277.933594 296.46875 276.246094 C 298.167969 274.5625 299.832031 272.835938 301.453125 271.074219 C 303.074219 269.308594 304.652344 267.511719 306.191406 265.675781 C 307.730469 263.839844 309.226562 261.96875 310.679688 260.066406 C 312.132812 258.160156 313.542969 256.222656 314.90625 254.253906 C 316.273438 252.285156 317.589844 250.289062 318.863281 248.257812 C 320.136719 246.230469 321.363281 244.171875 322.542969 242.085938 C 323.71875 240 324.851562 237.890625 325.933594 235.753906 C 327.015625 233.617188 328.046875 231.457031 329.03125 229.269531 C 330.011719 227.085938 330.945312 224.878906 331.828125 222.652344 C 332.707031 220.425781 333.539062 218.179688 334.316406 215.914062 C 335.097656 213.648438 335.824219 211.367188 336.5 209.070312 C 337.171875 206.769531 337.792969 204.457031 338.363281 202.132812 C 338.929688 199.804688 339.445312 197.464844 339.90625 195.117188 C 340.367188 192.765625 340.773438 190.40625 341.128906 188.035156 C 341.480469 185.667969 341.78125 183.289062 342.023438 180.90625 C 342.269531 178.523438 342.457031 176.136719 342.59375 173.746094 C 342.726562 171.355469 342.808594 168.960938 342.832031 166.566406 C 342.859375 164.171875 342.828125 161.777344 342.746094 159.382812 C 342.660156 156.988281 342.519531 154.597656 342.328125 152.210938 C 342.132812 149.824219 341.882812 147.441406 341.582031 145.0625 C 341.277344 142.6875 340.921875 140.320312 340.507812 137.960938 C 340.097656 135.601562 339.632812 133.25 339.113281 130.914062 C 338.59375 128.574219 338.019531 126.25 337.394531 123.9375 C 336.769531 121.625 336.089844 119.328125 335.359375 117.046875 C 334.628906 114.765625 333.84375 112.503906 333.011719 110.257812 C 332.175781 108.011719 331.289062 105.789062 330.351562 103.582031 C 329.417969 101.378906 328.429688 99.195312 327.394531 97.039062 C 326.355469 94.878906 325.269531 92.742188 324.136719 90.632812 C 323 88.523438 321.820312 86.441406 320.589844 84.386719 C 319.359375 82.332031 318.082031 80.304688 316.761719 78.308594 C 315.4375 76.308594 314.070312 74.34375 312.65625 72.410156 C 311.242188 70.476562 309.789062 68.574219 308.289062 66.707031 C 306.789062 64.839844 305.246094 63.007812 303.660156 61.210938 C 302.078125 59.414062 300.453125 57.652344 298.789062 55.929688 C 297.125 54.207031 295.421875 52.523438 293.679688 50.878906 C 291.9375 49.238281 290.160156 47.632812 288.34375 46.070312 C 286.527344 44.507812 284.679688 42.984375 282.792969 41.507812 C 280.910156 40.03125 278.992188 38.59375 277.039062 37.203125 C 275.089844 35.816406 273.109375 34.46875 271.097656 33.171875 C 269.085938 31.871094 267.042969 30.617188 264.972656 29.410156 C 262.90625 28.207031 260.808594 27.046875 258.6875 25.9375 C 256.5625 24.828125 254.414062 23.765625 252.246094 22.753906 C 250.074219 21.742188 247.878906 20.78125 245.664062 19.871094 C 243.449219 18.960938 241.214844 18.101562 238.960938 17.292969 C 236.703125 16.480469 234.433594 15.726562 232.144531 15.019531 C 229.855469 14.316406 227.550781 13.664062 225.230469 13.066406 C 222.910156 12.464844 220.578125 11.921875 218.234375 11.429688 C 215.890625 10.9375 213.535156 10.5 211.171875 10.113281 C 208.808594 9.730469 206.4375 9.398438 204.054688 9.125 C 201.675781 8.847656 199.292969 8.628906 196.902344 8.460938 C 194.511719 8.292969 192.121094 8.183594 189.726562 8.125 C 187.332031 8.070312 184.9375 8.066406 182.542969 8.121094 C 180.148438 8.171875 177.753906 8.28125 175.367188 8.445312 C 172.976562 8.605469 170.589844 8.824219 168.210938 9.09375 Z M 168.210938 9.09375 " fill-opacity="1" fill-rule="nonzero"/><g clip-path="url(#50f5abceb3)"><path fill="#a0dcf2" d="M 290.722656 339.289062 C 290.722656 358.871094 245.171875 374.746094 188.984375 374.746094 C 132.792969 374.746094 87.242188 358.871094 87.242188 339.289062 C 87.242188 319.703125 132.789062 303.820312 188.984375 303.820312 C 245.175781 303.820312 290.722656 319.722656 290.722656 339.289062 " fill-opacity="1" fill-rule="nonzero"/></g><g clip-path="url(#1c8e188a88)"><g clip-path="url(#3efde9c216)"><path fill="#82bde7" d="M 290.722656 339.289062 C 290.722656 358.871094 245.171875 374.746094 188.984375 374.746094 C 132.792969 374.746094 87.242188 358.871094 87.242188 339.289062 C 87.242188 319.703125 132.789062 303.820312 188.984375 303.820312 C 245.175781 303.820312 290.722656 319.722656 290.722656 339.289062 " fill-opacity="1" fill-rule="nonzero"/></g></g><path fill="#a0dcf2" d="M 72.769531 235.015625 L 69.835938 245.207031 C 69.835938 245.207031 69.070312 248.890625 72.554688 249.539062 C 76.191406 249.46875 75.894531 246.078125 75.640625 244.980469 Z M 72.769531 235.015625 " fill-opacity="1" fill-rule="nonzero"/><path fill="#292929" d="M 368.535156 192.28125 L 368.804688 190.957031 C 338.957031 185.011719 308.328125 184.953125 289.777344 185.71875 C 292.824219 174.796875 293.742188 162.230469 293.742188 148.214844 C 293.742188 128.113281 286.15625 112.035156 273.847656 99.796875 C 276 92.882812 278.875 77.523438 270.976562 57.863281 C 270.976562 57.863281 257.03125 53.460938 225.550781 74.457031 C 213.210938 71.386719 200.078125 69.867188 186.925781 69.867188 C 172.453125 69.867188 157.832031 71.703125 144.195312 75.429688 C 111.683594 53.339844 97.332031 57.863281 97.332031 57.863281 C 87.964844 81.210938 93.757812 98.460938 95.515625 102.753906 C 84.503906 114.589844 77.78125 129.691406 77.78125 148.214844 C 77.78125 162.195312 79.382812 174.738281 83.285156 185.640625 C 64.597656 184.964844 35.085938 185.222656 6.285156 190.953125 L 6.550781 192.277344 C 35.503906 186.511719 65.199219 186.308594 83.753906 187.011719 C 84.613281 189.265625 85.574219 191.4375 86.644531 193.570312 C 68.277344 194.160156 36.917969 196.492188 6.863281 204.9375 L 7.230469 206.234375 C 37.523438 197.726562 69.15625 195.453125 87.347656 194.902344 C 98.320312 215.273438 119.957031 228.433594 158.449219 232.542969 C 152.984375 236.199219 147.414062 242.414062 145.148438 252.933594 C 137.707031 256.476562 114.140625 265.132812 100 240.914062 C 100 240.914062 92.085938 226.503906 76.933594 225.375 C 76.933594 225.375 62.242188 225.175781 75.917969 234.496094 C 75.917969 234.496094 85.753906 239.109375 92.539062 256.433594 C 92.539062 256.433594 101.390625 286.011719 144.097656 276.523438 L 144.097656 307.078125 C 144.097656 307.078125 143.195312 317.886719 133.246094 321.484375 C 123.296875 325.085938 127.367188 325.539062 133.699219 327.785156 C 133.699219 327.785156 161.277344 330.039062 161.277344 307.527344 L 161.277344 274.210938 C 161.277344 274.210938 160.183594 260.996094 166.699219 256.40625 L 166.699219 311.179688 C 166.699219 311.179688 166.25 324.234375 159.46875 329.1875 C 152.683594 334.140625 154.945312 337.289062 164.890625 335.042969 C 164.890625 335.042969 183.878906 332.339844 184.78125 310.277344 L 185.214844 254.898438 L 189.777344 254.898438 L 190.210938 310.277344 C 191.113281 332.339844 210.101562 335.042969 210.101562 335.042969 C 220.046875 337.289062 215.523438 329.1875 215.523438 329.1875 C 208.746094 324.238281 208.292969 311.179688 208.292969 311.179688 L 208.292969 256.925781 C 214.808594 261.957031 213.71875 274.261719 213.71875 274.261719 L 213.71875 307.578125 C 213.71875 330.089844 241.292969 327.835938 241.292969 327.835938 C 247.621094 325.585938 241.75 321.535156 241.75 321.535156 C 231.800781 317.914062 230.894531 307.128906 230.894531 307.128906 L 230.894531 263.457031 C 230.894531 246.425781 223.695312 237.40625 216.652344 232.644531 C 257.679688 228.589844 277.398438 215.390625 286.476562 194.878906 C 304.457031 195.371094 336.8125 197.554688 367.765625 206.253906 L 368.132812 204.953125 C 337.355469 196.308594 305.214844 194.074219 287.050781 193.546875 C 287.914062 191.472656 288.664062 189.320312 289.332031 187.105469 C 307.730469 186.300781 338.5 186.328125 368.464844 192.296875 " fill-opacity="1" fill-rule="nonzero"/><path fill="#f5cdb5" d="M 253.617188 147.253906 C 262.457031 155.230469 267.628906 164.867188 267.628906 175.242188 C 267.628906 223.703125 231.355469 225.015625 186.617188 225.015625 C 141.875 225.015625 105.589844 218.335938 105.589844 175.28125 C 105.589844 164.96875 110.691406 155.398438 119.425781 147.453125 C 133.988281 134.210938 158.640625 141.222656 186.605469 141.222656 C 214.460938 141.222656 239.019531 134.140625 253.605469 147.292969 " fill-opacity="1" fill-rule="nonzero"/><path fill="#ffffff" d="M 159.671875 177.730469 C 159.671875 191.074219 152.125 201.894531 142.816406 201.894531 C 133.507812 201.894531 125.957031 191.078125 125.957031 177.730469 C 125.957031 164.382812 133.507812 153.566406 142.816406 153.566406 C 152.125 153.566406 159.671875 164.382812 159.671875 177.730469 " fill-opacity="1" fill-rule="nonzero"/><path fill="#b1645a" d="M 154.261719 178.03125 C 154.261719 186.929688 149.207031 194.136719 143.023438 194.136719 C 136.839844 194.136719 131.785156 186.929688 131.785156 178.03125 C 131.785156 169.132812 136.816406 161.917969 143.023438 161.917969 C 149.230469 161.917969 154.261719 169.128906 154.261719 178.03125 " fill-opacity="1" fill-rule="nonzero"/><path fill="#ffffff" d="M 250.097656 177.730469 C 250.097656 191.074219 242.554688 201.894531 233.238281 201.894531 C 223.925781 201.894531 216.382812 191.078125 216.382812 177.730469 C 216.382812 164.382812 223.933594 153.566406 233.238281 153.566406 C 242.546875 153.566406 250.097656 164.382812 250.097656 177.730469 " fill-opacity="1" fill-rule="nonzero"/><path fill="#b1645a" d="M 244.703125 178.03125 C 244.703125 186.929688 239.652344 194.136719 233.464844 194.136719 C 227.28125 194.136719 222.230469 186.929688 222.230469 178.03125 C 222.230469 169.132812 227.28125 161.917969 233.464844 161.917969 C 239.652344 161.917969 244.703125 169.128906 244.703125 178.03125 M 191.070312 199.164062 C 191.070312 201.484375 189.183594 203.363281 186.855469 203.363281 C 184.527344 203.363281 182.640625 201.484375 182.640625 199.164062 C 182.640625 196.847656 184.527344 194.96875 186.855469 194.96875 C 189.1875 194.96875 191.070312 196.847656 191.070312 199.164062 M 177.035156 209.785156 C 176.976562 209.613281 176.949219 209.441406 176.960938 209.261719 C 176.96875 209.082031 177.011719 208.914062 177.089844 208.75 C 177.167969 208.589844 177.273438 208.449219 177.40625 208.328125 C 177.539062 208.207031 177.691406 208.117188 177.863281 208.058594 C 178.03125 208 178.207031 207.972656 178.386719 207.984375 C 178.566406 207.992188 178.738281 208.035156 178.898438 208.113281 C 179.0625 208.191406 179.203125 208.296875 179.324219 208.429688 C 179.441406 208.5625 179.53125 208.714844 179.59375 208.882812 C 180.675781 211.933594 183.582031 213.980469 186.820312 213.980469 C 190.0625 213.980469 192.964844 211.933594 194.054688 208.882812 C 194.113281 208.714844 194.203125 208.5625 194.324219 208.429688 C 194.445312 208.296875 194.585938 208.191406 194.746094 208.117188 C 194.910156 208.039062 195.078125 207.996094 195.257812 207.984375 C 195.4375 207.976562 195.613281 208 195.78125 208.0625 C 195.953125 208.121094 196.101562 208.210938 196.238281 208.332031 C 196.371094 208.449219 196.476562 208.589844 196.554688 208.753906 C 196.628906 208.914062 196.675781 209.082031 196.683594 209.261719 C 196.691406 209.441406 196.667969 209.613281 196.609375 209.785156 C 196.242188 210.785156 195.738281 211.707031 195.085938 212.554688 C 194.4375 213.398438 193.671875 214.128906 192.796875 214.738281 C 191.921875 215.351562 190.976562 215.816406 189.957031 216.136719 C 188.9375 216.457031 187.890625 216.617188 186.820312 216.617188 C 185.753906 216.617188 184.707031 216.457031 183.6875 216.136719 C 182.667969 215.816406 181.722656 215.351562 180.84375 214.738281 C 179.96875 214.128906 179.207031 213.398438 178.558594 212.554688 C 177.90625 211.707031 177.398438 210.785156 177.035156 209.785156 " fill-opacity="1" fill-rule="nonzero"/><path fill="#c5e6da" d="M 83.5625 229.015625 C 83.5625 230.136719 82.246094 231.042969 80.621094 231.042969 C 79 231.042969 77.683594 230.136719 77.683594 229.015625 C 77.683594 227.898438 79 226.988281 80.621094 226.988281 C 82.246094 226.988281 83.5625 227.894531 83.5625 229.015625 M 91.703125 233.515625 C 91.703125 234.636719 90.386719 235.542969 88.765625 235.542969 C 87.140625 235.542969 85.824219 234.636719 85.824219 233.515625 C 85.824219 232.390625 87.140625 231.488281 88.765625 231.488281 C 90.390625 231.488281 91.703125 232.394531 91.703125 233.515625 M 96.679688 239.351562 C 96.679688 240.46875 95.367188 241.375 93.738281 241.375 C 92.113281 241.375 90.804688 240.472656 90.804688 239.351562 C 90.804688 238.234375 92.117188 237.324219 93.738281 237.324219 C 95.363281 237.324219 96.679688 238.230469 96.679688 239.351562 M 101.199219 246.109375 C 101.199219 247.230469 99.882812 248.136719 98.261719 248.136719 C 96.636719 248.136719 95.320312 247.230469 95.320312 246.109375 C 95.320312 244.984375 96.632812 244.082031 98.261719 244.082031 C 99.886719 244.082031 101.199219 244.984375 101.199219 246.109375 M 106.171875 252.433594 C 106.171875 253.550781 104.859375 254.460938 103.234375 254.460938 C 101.609375 254.460938 100.292969 253.554688 100.292969 252.433594 C 100.292969 251.316406 101.613281 250.40625 103.234375 250.40625 C 104.859375 250.40625 106.171875 251.3125 106.171875 252.433594 M 112.957031 257.835938 C 112.957031 258.957031 111.644531 259.863281 110.015625 259.863281 C 108.390625 259.863281 107.082031 258.960938 107.082031 257.835938 C 107.082031 256.710938 108.394531 255.8125 110.015625 255.8125 C 111.640625 255.8125 112.957031 256.714844 112.957031 257.835938 " fill-opacity="1" fill-rule="nonzero"/><path fill="#c5e6da" d="M 122.453125 261.429688 C 122.453125 262.546875 121.140625 263.457031 119.515625 263.457031 C 117.890625 263.457031 116.574219 262.550781 116.574219 261.429688 C 116.574219 260.3125 117.886719 259.402344 119.515625 259.402344 C 121.140625 259.402344 122.453125 260.308594 122.453125 261.429688 " fill-opacity="1" fill-rule="nonzero"/><path fill="#c5e6da" d="M 131.902344 261.429688 C 131.902344 262.546875 130.589844 263.457031 128.964844 263.457031 C 127.339844 263.457031 126.023438 262.550781 126.023438 261.429688 C 126.023438 260.3125 127.339844 259.402344 128.964844 259.402344 C 130.59375 259.402344 131.902344 260.308594 131.902344 261.429688 " fill-opacity="1" fill-rule="nonzero"/><path fill="#c5e6da" d="M 141.496094 259.863281 C 141.496094 260.984375 140.183594 261.890625 138.558594 261.890625 C 136.933594 261.890625 135.617188 260.984375 135.617188 259.863281 C 135.617188 258.738281 136.929688 257.832031 138.558594 257.832031 C 140.183594 257.832031 141.496094 258.738281 141.496094 259.863281 " fill-opacity="1" fill-rule="nonzero"/></svg>